<?xml version="1.0" encoding="UTF-8" standalone="no"?>
<!-- Created with Inkscape (http://www.inkscape.org/) -->

<svg
   xmlns:dc="http://purl.org/dc/elements/1.1/"
   xmlns:cc="http://creativecommons.org/ns#"
   xmlns:rdf="http://www.w3.org/1999/02/22-rdf-syntax-ns#"
   xmlns:svg="http://www.w3.org/2000/svg"
   xmlns="http://www.w3.org/2000/svg"
   version="1.1"
   width="80pt"
   height="80pt"
   id="svg1">
  <metadata
     id="metadata51" />
  <defs
     id="defs3" />
  <path
     d="m 21.565237,93.58942 c 4.04711,6.06184 8.744227,6.14787 17.348378,2.916578 C 48.081743,91.996015 47.306733,88.9048 48.299024,83.538189 46.346425,75.498015 35.240772,72.279962 36.94153,81.583754 23.047972,65.985767 20.101246,82.709873 26.242868,86.793379 21.857886,86.692275 19.345723,86.500729 21.565237,93.58942 z"
     transform="matrix(0.42173,0,0,0.407361,-1.51307,3.009429)"
     id="path866"
     style="fill:#ffffff;fill-rule:evenodd;stroke:#000000;stroke-width:3.01580358;stroke-linejoin:round;stroke-dasharray:none" />
  <path
     d="M 48.570352,89.156641 C 45.268104,85.561744 28.21054,95.145689 32.836701,100.24097 35.766518,102.6024 50.240962,97.836161 48.570352,89.156641 z"
     transform="matrix(0.42173,0,0,0.407361,-1.51307,3.009429)"
     id="path867"
     style="fill:#ffffff;fill-rule:evenodd;stroke:#000000;stroke-width:3.01580358;stroke-linejoin:round;stroke-dasharray:none" />
  <path
     d="m 179.28541,182.28706 c 0,0 -12.69618,8.07938 -12.69618,8.07938 0,0 9.23358,7.30992 -2.3084,25.00762 24.23815,-15.00457 15.00458,-33.087 15.00458,-33.087 z"
     transform="matrix(0.42173,0,0,0.407361,-1.51307,3.009429)"
     id="path853"
     style="fill-rule:evenodd;stroke:#000000;stroke-width:1pt" />
  <path
     d="m 101.87617,130.62962 c 0,0 -28.491528,-14.36629 -47.059152,6.24783 -18.567628,20.61415 -45.9604852,40.08258 -23.463184,46.10036 22.497305,6.0178 67.371431,-25.69176 69.789666,-35.51934 2.41823,-9.82759 0.73267,-16.82885 0.73267,-16.82885 z"
     transform="matrix(0.42173,0,0,0.407361,-1.51307,3.009429)"
     id="path848"
     style="fill:#ffffff;fill-opacity:0.24999994;fill-rule:evenodd;stroke:#000000;stroke-width:3.01580358;stroke-linejoin:round;stroke-dasharray:none" />
  <path
     d="m 154.16516,107.43238 c 0,0 2.75792,-31.789175 30.05488,-36.746483 27.29698,-4.957306 58.25898,-18.024162 51.55067,4.276981 -6.7083,22.301145 -57.27361,43.803082 -66.90482,40.693572 -9.63121,-3.10951 -14.70073,-8.22407 -14.70073,-8.22407 z"
     transform="matrix(0.42173,0,0,0.407361,-1.51307,3.009429)"
     id="path846"
     style="fill:#ffffff;fill-opacity:0.24999994;fill-rule:evenodd;stroke:#000000;stroke-width:3.01580358;stroke-linejoin:round;stroke-dasharray:none" />
  <path
     d="m 108.13542,110.89797 c 0,0 -33.017657,-25.225565 -56.237679,-10.04235 -23.220033,15.18322 -57.1157931,36.73518 -36.904081,48.30364 20.211717,11.56845 83.194843,-10.03239 88.04479,-18.91537 4.84995,-8.88298 5.09697,-19.34592 5.09697,-19.34592 z"
     transform="matrix(0.42173,0,0,0.407361,-1.51307,3.009429)"
     id="path845"
     style="fill:#ffffff;fill-opacity:0.24999994;fill-rule:evenodd;stroke:#000000;stroke-width:3.01580358;stroke-linejoin:round;stroke-dasharray:none" />
  <path
     d="m 137.73429,90.720691 c 0,0 0,-41.551124 26.16181,-50.784707 26.16182,-9.233583 63.86562,-23.083958 60.78776,0 -3.07786,23.083958 -58.47936,60.018291 -68.48241,58.47936 -10.00305,-1.538931 -18.46716,-7.694653 -18.46716,-7.694653 z"
     transform="matrix(0.42173,0,0,0.407361,-1.51307,3.009429)"
     id="path843"
     style="fill:#ffffff;fill-opacity:0.24999994;fill-rule:evenodd;stroke:#000000;stroke-width:3.01580358;stroke-linejoin:round;stroke-dasharray:none" />
  <path
     d="M 94.644227,143.04433 C 146.19839,210.75727 209.29455,215.37406 176.20754,106.10999 153.89305,78.409245 83.102253,123.03823 94.644227,143.04433 z"
     transform="matrix(0.42173,0,0,0.407361,-1.51307,3.009429)"
     id="path842"
     style="fill:#ffff00;fill-rule:evenodd;stroke:#000000;stroke-width:3.01580358;stroke-linejoin:round;stroke-dasharray:none" />
  <path
     d="M 92.323416,115.28624 C 99.691859,148.77916 163.99827,133.37242 152.61067,93.850768 141.22308,69.066011 85.624832,91.841197 92.323416,115.28624 z"
     transform="matrix(0.42173,0,0,0.407361,-1.51307,3.009429)"
     id="path835"
     style="fill:#ffff00;fill-rule:evenodd;stroke:#000000;stroke-width:3.01580358;stroke-linejoin:round;stroke-dasharray:none" />
  <path
     d="m 105.3913,48.7343 c 12.17176,-2.870237 24.81945,6.543433 28.23146,21.01265 3.412,14.469216 -3.69737,28.541816 -15.86913,31.41205 C 105.58186,104.02924 92.934169,94.615576 89.522167,80.146359 86.110165,65.677142 93.219535,51.604537 105.3913,48.7343 z"
     transform="matrix(0.42173,0,0,0.407361,-1.51307,3.009429)"
     id="path826"
     style="fill:#ffff00;fill-rule:evenodd;stroke:#000000;stroke-width:3.01580358;stroke-linejoin:round;stroke-dasharray:none" />
  <path
     d="m 109.29702,77.866805 c 0,3.397958 -3.89531,8.054279 -7.0809,8.054279 -3.18558,0 -7.604854,-5.198766 -7.604854,-8.596724 0,-3.397959 3.63333,-6.698167 6.818914,-6.698167 3.18559,0 7.86684,3.842653 7.86684,7.240612 z"
     transform="matrix(0.42173,0,0,0.407361,-1.51307,3.009429)"
     id="path828"
     style="fill:#ffffff;fill-rule:evenodd;stroke:#000000;stroke-width:3.01580358;stroke-linejoin:round;stroke-dasharray:none" />
  <path
     d="m 107.41169,74.073269 c -3.53554,-1.325824 -11.196671,5.976537 -8.986962,9.070128 5.041312,6.378208 13.459932,-5.353552 8.986962,-9.070128 z"
     transform="matrix(0.42173,0,0,0.407361,-1.51307,3.009429)"
     id="path829"
     style="fill-rule:evenodd;stroke-width:1pt" />
  <path
     d="m 107.45184,79.959133 c -1.65028,-1.994296 -6.54475,0.619524 -4.62191,3.605088 3.42505,1.215341 5.72676,-2.831689 4.62191,-3.605088 z"
     transform="matrix(0.42173,0,0,0.407361,-1.51307,3.009429)"
     id="path830"
     style="fill:#ffffff;fill-opacity:0.75;fill-rule:evenodd;stroke-width:1pt" />
  <path
     d="m 108.41018,93.769664 c 9.69125,5.390189 16.26888,-0.678644 19.03102,-8.412624"
     transform="matrix(0.42173,0,0,0.407361,-1.51307,3.009429)"
     id="path834"
     style="fill:none;stroke:#000000;stroke-width:3.01580358;stroke-linejoin:round;stroke-dasharray:none" />
  <path
     d="m 112.41917,51.649693 c 0,0 -17.41632,-35.502496 13.39717,-36.172355 30.81348,-0.669858 30.14363,-0.669858 30.14363,-0.669858"
     transform="matrix(0.42173,0,0,0.407361,-1.51307,3.009429)"
     id="path836"
     style="fill:none;stroke:#000000;stroke-width:3.01580358;stroke-dasharray:none" />
  <path
     d="m 107.1875,49.375 c -1.875,0.3125 -26.5625,7.5 -14.0625,37.5 -7.1875,-29.0625 22.5,-35.625 14.0625,-37.5 z"
     transform="matrix(0.42173,0,0,0.407361,-1.51307,3.009429)"
     id="path863"
     style="fill:#ffffff;fill-opacity:0.5;fill-rule:evenodd;stroke-width:1pt" />
  <path
     d="M 96.342567,65.716719 C 64.189363,49.640117 45.433327,40.931958 42.084035,58.348277 c -3.349292,17.416318 -3.349292,16.74646 -3.349292,16.74646"
     transform="matrix(0.42173,0,0,0.407361,-1.51307,3.009429)"
     id="path837"
     style="fill:none;stroke:#000000;stroke-width:3.01580358;stroke-dasharray:none" />
  <path
     d="m 165.70174,18.570855 c -8.40709,10.074796 -20.67453,0.699368 -16.9689,-5.418313 8.54528,-14.9435246 22.97318,-4.212547 16.9689,5.418313 z"
     transform="matrix(0.42173,0,0,0.407361,-1.51307,3.009429)"
     id="path840"
     style="fill-rule:evenodd;stroke-width:1pt" />
  <path
     d="m 160.12027,7.0684271 c -6.00265,-3.469221 -15.90824,9.7639859 -8.35706,12.2097469 3.00238,2.845274 -2.15229,-11.1190598 8.35706,-12.2097469 z"
     transform="matrix(0.42173,0,0,0.407361,-1.51307,3.009429)"
     id="path841"
     style="fill:#ffffff;fill-opacity:0.5;fill-rule:evenodd;stroke-width:1pt" />
  <path
     d="m 94.259494,141.12067 c 8.848846,6.15572 60.403016,1.92366 80.793846,-36.93434 l 3.4626,14.23511 c -1.1542,3.07786 -32.70227,36.93434 -74.63813,35.78014 -2.30839,-1.1542 -9.618316,-13.08091 -9.618316,-13.08091 z"
     transform="matrix(0.42173,0,0,0.407361,-1.51307,3.009429)"
     id="path849"
     style="fill-rule:evenodd;stroke:#000000;stroke-width:1pt;stroke-linejoin:round" />
  <path
     d="m 113.88086,164.20462 c 28.08548,1.53893 60.78775,-25.39235 68.09767,-34.2412 l 2.3084,11.92671 c 0,0 -37.70381,36.16486 -60.40303,30.77861 -1.92366,0 -10.00304,-8.46412 -10.00304,-8.46412 z"
     transform="matrix(0.42173,0,0,0.407361,-1.51307,3.009429)"
     id="path850"
     style="fill-rule:evenodd;stroke:#000000;stroke-width:1pt" />
  <path
     d="m 134.65642,181.90232 c 16.15877,-1.92366 43.09006,-15.3893 50.39997,-28.08548 0,4.6168 0.76947,10.00305 -0.76946,16.92824 -6.15573,3.84733 -26.16182,21.54502 -38.47326,16.92823 -3.84733,-1.15419 -8.46412,-3.84732 -11.15725,-5.77099 z"
     transform="matrix(0.42173,0,0,0.407361,-1.51307,3.009429)"
     id="path851"
     style="fill-rule:evenodd;stroke:#000000;stroke-width:1pt;stroke-linejoin:round" />
  <path
     d="m 169.28236,191.90537 c 2.33258,1.74944 2.43783,13.49834 -4.15099,22.90974 12.65498,-21.7869 10.69144,-20.60134 10.69144,-24.44867 0,-3.84732 -6.54045,1.53893 -6.54045,1.53893 z"
     transform="matrix(0.42173,0,0,0.407361,-1.51307,3.009429)"
     id="path854"
     style="fill:#ffffff;fill-opacity:0.5;fill-rule:evenodd;stroke-width:1pt" />
  <path
     d="m 94.427285,104.85413 c -2.474077,8.65927 2.886423,23.91608 14.844465,25.56547 15.66916,4.94815 35.04943,-7.00989 38.3482,-13.60743 4.94815,-6.59754 8.65927,-19.380272 -2.06173,-28.451889 2.06173,11.958039 0.82469,17.730889 -1.64939,21.442009 -14.01977,13.19508 -23.50373,13.60742 -34.22473,13.60742 -11.133355,-0.41235 -13.60743,-12.78274 -15.256815,-18.55558 z"
     transform="matrix(0.42173,0,0,0.407361,-1.51307,3.009429)"
     id="path855"
     style="fill-opacity:0.11999996;fill-rule:evenodd;stroke-width:1pt" />
  <path
     d="m 98.550747,130.83194 c 0,0 -5.360501,3.29877 -2.886423,9.89631 2.474077,6.59754 37.935856,53.60501 69.686516,48.24451 -38.76055,-6.1852 -51.54328,-54.84205 -66.800093,-58.14082 z"
     transform="matrix(0.42173,0,0,0.407361,-1.51307,3.009429)"
     id="path856"
     style="fill:#ffffff;fill-opacity:0.5;fill-rule:evenodd;stroke-width:1pt" />
  <path
     d="m 96.901362,108.1529 c 0,0 -37.935852,13.19508 -46.595123,0.82469 C 41.646968,96.607205 41.646968,96.607205 41.646968,96.607205"
     transform="matrix(0.42173,0,0,0.407361,-1.51307,3.009429)"
     id="path857"
     style="fill:none;stroke:#000000;stroke-width:3.01580358;stroke-linejoin:round;stroke-dasharray:none" />
  <path
     d="M 141.8471,90.422012 C 166.17553,68.155316 167.00022,80.113356 166.58787,65.268892 166.17553,50.424428 166.17553,49.18739 166.17553,49.18739"
     transform="matrix(0.42173,0,0,0.407361,-1.51307,3.009429)"
     id="path858"
     style="fill:none;stroke:#000000;stroke-width:3.01580358;stroke-linejoin:round;stroke-dasharray:none" />
  <path
     d="m 101.43717,127.12083 c 0,0 -22.679042,15.25681 -23.91608,23.50373 -1.237039,8.24692 3.29877,26.8025 3.29877,26.8025"
     transform="matrix(0.42173,0,0,0.407361,-1.51307,3.009429)"
     id="path859"
     style="fill:none;stroke:#000000;stroke-width:3.01580358;stroke-linejoin:round;stroke-dasharray:none" />
  <path
     d="m 149.68168,103.61709 c 40.82227,-4.535807 39.58524,-10.721001 45.35808,-1.64938 5.77285,9.07161 11.13335,31.75066 11.13335,31.75066"
     transform="matrix(0.42173,0,0,0.407361,-1.51307,3.009429)"
     id="path860"
     style="fill:none;stroke:#000000;stroke-width:3.01580358;stroke-linejoin:round;stroke-dasharray:none" />
  <path
     d="m 147.61995,95.370167 c 0,0 16.0815,-10.308656 22.67904,-11.133348 6.59754,-0.824693 33.81239,4.535808 33.81239,4.535808"
     transform="matrix(0.42173,0,0,0.407361,-1.51307,3.009429)"
     id="path861"
     style="fill:none;stroke:#000000;stroke-width:3.01580358;stroke-linejoin:round;stroke-dasharray:none" />
  <path
     d="m 98.963093,116.81217 c -33.400044,10.30866 -31.338313,4.94815 -34.224736,10.30866 -2.886424,5.3605 -10.308656,20.61731 -10.308656,20.61731"
     transform="matrix(0.42173,0,0,0.407361,-1.51307,3.009429)"
     id="path862"
     style="fill:none;stroke:#000000;stroke-width:3.01580358;stroke-linejoin:round;stroke-dasharray:none" />
  <path
     d="m 181.28735,36.23557 c -0.63311,7.261142 -4.71,9.595506 -13.80781,10.900329 -10.20723,0.454939 -11.01435,-2.628047 -14.46527,-6.85609 -2.15471,-7.988383 6.03471,-16.150785 9.01793,-7.175621 4.68,-20.357449 15.30653,-7.111482 11.88562,-0.577582 3.79597,-2.197468 5.90643,-3.573558 7.36953,3.708964 z"
     transform="matrix(0.42173,0,0,0.407361,-1.51307,3.009429)"
     id="path868"
     style="fill:#ffffff;fill-rule:evenodd;stroke:#000000;stroke-width:3.01580358;stroke-linejoin:round;stroke-dasharray:none" />
  <path
     d="m 155.47841,45.336357 c 1.16643,-4.739995 20.73101,-4.540449 19.12538,2.151728 -1.43311,3.479421 -16.41596,6.261597 -19.12538,-2.151728 z"
     transform="matrix(0.42173,0,0,0.407361,-1.51307,3.009429)"
     id="path869"
     style="fill:#ffffff;fill-rule:evenodd;stroke:#000000;stroke-width:3.01580358;stroke-linejoin:round;stroke-dasharray:none" />
  <path
     d="m 223.11816,138.88076 c -2.42628,-6.87301 -6.95694,-8.11535 -16.09236,-7.10695 -9.99746,2.10839 -10.00914,5.29526 -12.29491,10.2511 -0.0916,8.27337 9.87665,14.13214 10.5241,4.69636 9.61534,18.54383 16.59747,3.06388 11.6533,-2.40876 4.22446,1.17993 6.61169,1.98541 6.20987,-5.43175 z"
     transform="matrix(0.42173,0,0,0.407361,-1.51307,3.009429)"
     id="path870"
     style="fill:#ffffff;fill-rule:evenodd;stroke:#000000;stroke-width:3.01580358;stroke-linejoin:round;stroke-dasharray:none" />
  <path
     d="m 195.85425,136.51323 c 2.31314,4.29855 21.20806,-0.78029 17.98214,-6.8595 -2.25657,-3.01132 -17.45951,-1.96387 -17.98214,6.8595 z"
     transform="matrix(0.42173,0,0,0.407361,-1.51307,3.009429)"
     id="path871"
     style="fill:#ffffff;fill-rule:evenodd;stroke:#000000;stroke-width:3.01580358;stroke-linejoin:round;stroke-dasharray:none" />
  <path
     d="m 97.03486,180.84871 c -2.75189,-6.74923 -7.33674,-7.77368 -16.413538,-6.32996 -9.885302,2.58365 -9.744704,5.76743 -11.791081,10.82683 0.303786,8.2683 10.540583,13.64411 10.736463,4.18817 10.490356,18.06324 16.724906,2.26737 11.524906,-2.96279 4.27601,0.97674 6.699,1.66724 5.94325,-5.72225 z"
     transform="matrix(0.42173,0,0,0.407361,-1.51307,3.009429)"
     id="path872"
     style="fill:#ffffff;fill-rule:evenodd;stroke:#000000;stroke-width:3.01580358;stroke-linejoin:round;stroke-dasharray:none" />
  <path
     d="m 69.688977,179.78652 c 2.515878,4.18311 21.146553,-1.79269 17.633863,-7.71083 -2.397868,-2.90006 -17.533397,-1.12744 -17.633863,7.71083 z"
     transform="matrix(0.42173,0,0,0.407361,-1.51307,3.009429)"
     id="path873"
     style="fill:#ffffff;fill-rule:evenodd;stroke:#000000;stroke-width:3.01580358;stroke-linejoin:round;stroke-dasharray:none" />
  <path
     d="m 63.022527,165.10584 c 3.48651,-6.40072 1.379696,-10.59973 -5.480207,-16.71646 -8.254218,-6.02182 -10.631123,-3.89896 -15.844112,-2.28344 -6.211635,5.46559 -3.899676,16.79459 3.547863,10.96473 -7.354072,19.5511 8.823641,14.38772 9.585026,7.05186 1.948401,3.92964 2.946328,6.24303 8.19143,0.98331 z"
     transform="matrix(0.42173,0,0,0.407361,-1.51307,3.009429)"
     id="path874"
     style="fill:#ffffff;fill-rule:evenodd;stroke:#000000;stroke-width:3.01580358;stroke-linejoin:round;stroke-dasharray:none" />
  <path
     d="m 46.546921,143.25452 c -1.648351,4.59468 14.765183,15.24401 17.12675,8.77978 0.729271,-3.69166 -10.217959,-14.29282 -17.12675,-8.77978 z"
     transform="matrix(0.42173,0,0,0.407361,-1.51307,3.009429)"
     id="path875"
     style="fill:#ffffff;fill-rule:evenodd;stroke:#000000;stroke-width:3.01580358;stroke-linejoin:round;stroke-dasharray:none" />
  <path
     d="m 211.65964,107.36939 c -6.82262,-2.56457 -7.97321,-7.1194 -6.78054,-16.232591 2.30985,-9.952833 5.49631,-9.900156 10.49729,-12.085388 8.27354,0.07549 13.92982,10.160011 4.48289,10.616786 18.34587,9.987854 2.72808,16.655963 -2.64359,11.602283 1.09438,4.24743 1.85148,6.65044 -5.55605,6.09891 z"
     transform="matrix(0.42173,0,0,0.407361,-1.51307,3.009429)"
     id="path876"
     style="fill:#ffffff;fill-rule:evenodd;stroke:#000000;stroke-width:3.01580358;stroke-linejoin:round;stroke-dasharray:none" />
  <path
     d="m 209.84315,80.063247 c 4.25095,2.399472 -1.2084,21.187963 -7.22123,17.839954 -2.96514,-2.316927 -1.6109,-17.49561 7.22123,-17.839954 z"
     transform="matrix(0.42173,0,0,0.407361,-1.51307,3.009429)"
     id="path877"
     style="fill:#ffffff;fill-rule:evenodd;stroke:#000000;stroke-width:3.01580358;stroke-linejoin:round;stroke-dasharray:none" />
  <path
     d="m 18.114841,34.847242 c -0.329348,5.413476 -6.759075,5.515273 -7.028278,2.586044 -0.827357,-7.025626 6.661693,-7.241079 7.028278,-2.586044 z"
     id="path971"
     style="fill-rule:evenodd;stroke-width:1pt" />
  <path
     d="m 13.401257,32.549838 c -2.869834,0.411994 -2.921181,7.231693 0.214962,6.092109 1.70971,0.153435 -3.469099,-3.050469 -0.214962,-6.092109 z"
     id="path972"
     style="fill:#ffffff;fill-opacity:0.5;fill-rule:evenodd;stroke-width:1pt" />
  <path
     d="m 52.285718,30.922687 c -0.405832,1.323366 -2.532533,2.655169 -3.816952,2.26128 -1.284415,-0.393887 -2.445342,-2.965025 -2.039509,-4.288391 0.405832,-1.323366 2.264938,-2.159411 3.549354,-1.765523 1.28442,0.393889 2.71294,2.469268 2.307107,3.792634 z"
     id="path973"
     style="fill:#ffffff;fill-rule:evenodd;stroke:#000000;stroke-width:1.25;stroke-linejoin:round" />
  <path
     d="m 51.978638,29.212144 c -1.26717,-0.953513 -5.228264,0.943182 -4.706797,2.421233 1.270863,3.107396 6.066397,-0.420709 4.706797,-2.421233 z"
     id="path974"
     style="fill-rule:evenodd;stroke-width:1pt" />
  <path
     d="m 51.244784,31.032141 c -0.509817,-0.940454 -2.751556,-0.332978 -2.214169,1.026416 1.308242,0.787423 2.603552,-0.620525 2.214169,-1.026416 z"
     id="path976"
     style="fill:#ffffff;fill-opacity:0.75;fill-rule:evenodd;stroke-width:1pt" />
  <metadata
     id="metadata53">
    <rdf:RDF>
      <cc:Work
         rdf:about="">
        <dc:title></dc:title>
        <dc:rights>
          <cc:Agent>
            <dc:title>Nicu Buculei</dc:title>
          </cc:Agent>
        </dc:rights>
        <dc:type
           rdf:resource="http://purl.org/dc/dcmitype/StillImage" />
        <cc:license
           rdf:resource="http://web.resource.org/cc/PublicDomain" />
        <dc:format>image/svg+xml</dc:format>
      </cc:Work>
      <cc:License
         rdf:about="http://web.resource.org/cc/PublicDomain">
        <cc:permits
           rdf:resource="http://web.resource.org/cc/Reproduction" />
        <cc:permits
           rdf:resource="http://web.resource.org/cc/Distribution" />
        <cc:permits
           rdf:resource="http://web.resource.org/cc/DerivativeWorks" />
      </cc:License>
    </rdf:RDF>
  </metadata>
</svg>
