<?xml version="1.0" encoding="UTF-8" standalone="no"?>
<!-- Created with Inkscape (http://www.inkscape.org/) -->

<svg
   xmlns:dc="http://purl.org/dc/elements/1.1/"
   xmlns:cc="http://creativecommons.org/ns#"
   xmlns:rdf="http://www.w3.org/1999/02/22-rdf-syntax-ns#"
   xmlns:svg="http://www.w3.org/2000/svg"
   xmlns="http://www.w3.org/2000/svg"
   xmlns:sodipodi="http://sodipodi.sourceforge.net/DTD/sodipodi-0.dtd"
   xmlns:inkscape="http://www.inkscape.org/namespaces/inkscape"
   version="1.1"
   x="0px"
   y="0px"
   width="248.977px"
   height="393.857px"
   viewBox="0 0 248.977 393.857"
   enable-background="new 0 0 248.977 393.857"
   xml:space="preserve"
   id="svg3380"
   inkscape:version="0.48.2 r9819"
   sodipodi:docname="MM_Cartoon_tiger.svg"><metadata
   id="metadata3526"><rdf:RDF><cc:Work
       rdf:about=""><dc:format>image/svg+xml</dc:format><dc:type
         rdf:resource="http://purl.org/dc/dcmitype/StillImage" /><dc:title></dc:title></cc:Work></rdf:RDF></metadata><defs
   id="defs3524" /><sodipodi:namedview
   pagecolor="#ffffff"
   bordercolor="#666666"
   borderopacity="1"
   objecttolerance="10"
   gridtolerance="10"
   guidetolerance="10"
   inkscape:pageopacity="0"
   inkscape:pageshadow="2"
   inkscape:window-width="1382"
   inkscape:window-height="1013"
   id="namedview3522"
   showgrid="false"
   inkscape:zoom="0.59920226"
   inkscape:cx="124.4885"
   inkscape:cy="196.9285"
   inkscape:window-x="0"
   inkscape:window-y="0"
   inkscape:window-maximized="0"
   inkscape:current-layer="svg3380" />
<g
   id="Layer_1">
	<path
   id="path3229"
   fill="#FF860D"
   stroke="#010101"
   stroke-width="4"
   stroke-linecap="round"
   stroke-linejoin="round"
   d="   M96.198,146.283c-9.442-63.582,54.399-67.86,47.214-93.169c-7.473-26.324-36.512-18.886-51.62-22.663   c-15.107-3.777-12.88-17.732-3.776-25.181c6.925-5.666,63.548-8.729,76.802,32.734c18.436,57.68-45.326,52.881-45.326,107.02   C119.49,191.048,97.457,146.283,96.198,146.283z" />
	<g
   id="g3384">
		<path
   fill="#442006"
   d="M126.385,24.596c-0.09,0.291,0.065,0.538,0.287,0.706c2.234,1.695,5.253,1,7.837,2.333    c3.653,1.884,6.682,5.304,9.862,7.868c6.505,5.243,14.089,8.906,22.252,10.685c0.121,0.026,0.243,0.047,0.364,0.072    c-0.53-2.605-1.241-5.347-2.171-8.255c-0.607-1.899-1.307-3.703-2.087-5.419c-0.075-0.017-0.151-0.027-0.226-0.044    c-8.105-1.865-14.526-6.749-22.033-9.938C136.743,21.018,128.029,19.275,126.385,24.596z"
   id="path3386" />
		<path
   fill="#442006"
   d="M107.435,128.199c1.721-2.612,3.41-5.246,5.183-7.824c1.425-2.072,3.645-3.636,4.194-6.145    c0.062-0.283-0.082-0.532-0.354-0.625c-3.925-1.338-8.204,3.134-10.922,5.496c-3.289,2.858-6.774,5.558-10.006,8.502    c-0.431,4.696-0.384,9.812,0.246,15.403c0.678-0.738,1.352-1.479,2.019-2.224C101.344,136.822,104.509,132.639,107.435,128.199z"
   id="path3388" />
		<path
   fill="#442006"
   d="M123.889,91.927c-4.308,0.631-8.64,0.926-12.967,1.262c-3.055,3.379-5.898,7.127-8.303,11.374    c6.72-0.396,13.457,0.264,20.183,0.011c5.02-0.189,9.979-0.805,14.968-1.068c4.351-4.392,8.973-8.404,13.27-12.537    C142.203,89.137,132.677,90.639,123.889,91.927z"
   id="path3390" />
		<path
   fill="#442006"
   d="M120.245,135.292c-4.259,3.655-8.079,7.937-12.421,11.64c-0.607,0.517,0.196,1.557,0.852,1.104    c3.689-2.543,7.271-4.982,10.952-7.129C119.752,138.958,119.956,137.085,120.245,135.292z"
   id="path3392" />
		<path
   fill="#442006"
   d="M81.686,23.075c1.408,3.271,4.602,6,10.105,7.376c1.728,0.432,3.644,0.713,5.682,0.919    c2.983-2.011,5.945-4.054,8.938-6.049c6.673-4.448,13.912-7.667,20.935-11.472c1.292-0.7,1.354-2.825,0-3.508    c-14.57-7.339-29.644,3.569-42.085,10.728C84.078,21.75,82.885,22.417,81.686,23.075z"
   id="path3394" />
		<path
   fill="#442006"
   d="M156.679,70.287c-3.327-1.154-8.652-4.241-14.357-6.92c-1.661,3.171-4.465,6.136-7.909,9.176    c2.089,1.349,4.107,2.818,6.103,4.257c4.828,3.485,10.383,6.307,15.989,8.56c3.429-3.83,6.388-7.93,8.469-12.644    C162.16,72.09,159.388,71.227,156.679,70.287z"
   id="path3396" />
	</g>
	<path
   id="path3334"
   fill="#010101"
   fill-opacity="0.3137"
   d="M149.406,15.535c3.32,4.187,6.043,9.138,7.906,14.969   C175.75,88.183,112,83.396,112,137.535c0,18.697-3.66,22.4-8.063,20.219c6.791,9.204,15.562,16.332,15.562-12.719   c0-54.139,63.75-49.353,45.313-107.031C161.683,28.211,156.149,20.913,149.406,15.535z" />
	<path
   id="path2383"
   fill="#FF860D"
   stroke="#010101"
   stroke-width="4"
   stroke-linecap="round"
   stroke-linejoin="round"
   d="   M247.874,250.781c0.046,68.146-55.158,123.424-123.303,123.47C56.426,374.296,1.148,319.092,1.102,250.947c0-0.055,0-0.11,0-0.166   c-0.046-68.144,55.159-123.423,123.304-123.468c68.144-0.046,123.423,55.16,123.468,123.304   C247.874,250.671,247.874,250.726,247.874,250.781z" />
	<g
   id="g3400">
		<path
   fill="#442006"
   d="M83.417,140.745c8.052,1.825,16.798,2.888,25.036,1.986c6.462-0.707,15.923-2.312,17.401-9.73    c0.104-0.518-0.145-0.919-0.627-1.105c-5.619-2.163-12.065,0.037-18.084-0.024c-3.956-0.04-7.802-0.463-11.61-1.134    c-7.544,1.814-14.821,4.316-21.754,7.445C76.972,139.16,80.196,140.015,83.417,140.745z"
   id="path3402" />
		<path
   fill="#442006"
   d="M101.572,158.22c19.493,0.345,39.016-0.103,58.518,0.084c15.078,0.144,30.592,1.686,45.599-0.5    c-5.694-4.981-11.851-9.445-18.396-13.324c-9.715,0.315-19.581-0.253-29.102,0.592c-18.31,1.627-36.362,4.753-54.738,5.876    c-9.367,0.572-18.829,0.884-28.2,0.263c-4.81-0.318-9.603-0.868-14.37-1.571c-1.843-0.271-3.729-0.699-5.625-1.086    c-1.919,1.304-3.796,2.665-5.636,4.071c6.624,2.662,15.206,2.934,21.869,3.696C81.474,157.464,91.528,158.043,101.572,158.22z"
   id="path3404" />
		<path
   fill="#442006"
   d="M222.07,321.355c-12.544,1.138-24.694-1.554-36.373-5.958c-6.116-2.306-12.053-5.006-18.24-7.132    c-5.49-1.888-11.92-7.186-17.802-6.91c-1.064,0.05-1.752,1.156-1.214,2.116c1.349,2.406,3.513,3.537,5.778,5.072    c3.147,2.133,6.205,4.358,9.105,6.819c5.424,4.602,11.11,8.574,17.267,12.144c9.669,5.606,20.056,9.286,30.971,10.773    c5.362-5.342,10.231-11.176,14.543-17.425C224.769,321.061,223.426,321.232,222.07,321.355z"
   id="path3406" />
		<path
   fill="#442006"
   d="M171.264,345.71c-19.728-7.215-36.429-20.807-57.42-24.89c-26.829-5.22-51.559,5.517-74.022,19.792    c2.442,2.304,4.979,4.507,7.603,6.607c4.493-2.044,9.05-3.951,13.747-5.556c18.552-6.336,37.469-9.42,56.296-2.413    c9.283,3.454,17.849,9.193,26.461,14.013c8.516,4.764,17.31,8.886,26.486,12.15c8.937-3.587,17.355-8.187,25.115-13.661    C187.209,351.061,179.081,348.568,171.264,345.71z"
   id="path3408" />
		<path
   fill="#442006"
   d="M27.11,180.684c11.047,3.994,22.647,6.934,34.299,8.455c26.991,3.522,53.93-3.902,80.862-4.732    c27.36-0.844,53.958,9.667,81.301,3.69c2.099-0.458,4.178-1.036,6.23-1.713c-3.103-5.069-6.561-9.897-10.34-14.449    c-0.599,0.162-1.203,0.317-1.814,0.462c-11.624,2.754-24.197,1.295-35.901-0.147c-13.22-1.63-26.115-3.428-39.476-2.789    c-25.514,1.221-50.428,8.217-76.066,7.95c-11.309-0.117-22.395-2.502-33.222-5.607c-0.895-0.256-1.778-0.541-2.664-0.821    c-2.307,2.722-4.503,5.542-6.571,8.459C24.865,179.864,25.986,180.278,27.11,180.684z"
   id="path3410" />
		<path
   fill="#442006"
   d="M13.031,219.691c6.789,0.229,13.423,1.861,20.114,2.877c7.152,1.085,14.263,2.403,21.438,3.334    c13.885,1.801,27.632,1.584,41.177-2.26c6.82-1.935,13.175-5.262,19.14-9.024c2.768-1.745,5.086-3.931,7.538-6.076    c2.042-1.787,4.978-3.345,5.378-6.218c0.058-0.414-0.043-0.726-0.396-0.971c-3.65-2.535-11.556,0.977-15.3,2.282    c-6.756,2.355-12.887,5.452-19.956,6.966c-13.567,2.905-26.697,0.863-39.893-2.692c-13.369-3.603-26.322-7.411-40.246-8.041    c-2.887,6.378-5.247,13.043-7.025,19.943C7.653,219.656,10.32,219.6,13.031,219.691z"
   id="path3412" />
		<path
   fill="#442006"
   d="M74.19,269.668c6.4-1.643,12.491-4.758,18.223-7.973c5.058-2.837,10.59-5.956,14.098-10.655    c2.396-3.21-0.87-7.66-4.4-7.669c-5.986-0.015-11.559,3.659-16.808,6.159c-6.097,2.902-12.452,5.478-19.248,6.031    c-7.588,0.617-14.66-1.932-21.468-4.994c-7.566-3.402-14.999-6.813-22.948-9.247c-6.483-1.985-13.132-3.229-19.836-3.785    c-0.462,4.353-0.703,8.771-0.7,13.246c0,0.056,0,0.111,0,0.166c0.001,2.114,0.057,4.216,0.163,6.304    c10.835,0.912,21.617,3.725,31.716,7.447C46.678,269.748,59.622,273.404,74.19,269.668z"
   id="path3414" />
		<path
   fill="#442006"
   d="M20.759,303.268c9.656-3.867,19.781-7.408,30.229-8.191c7.058-0.529,25.18,2.936,27.494-6.79    c0.298-1.253-0.17-2.653-1.342-3.297c-3.9-2.143-9.205-0.577-13.532-1.202c-5.87-0.848-11.506-2.655-17.425-3.382    c-11.349-1.393-23.131,0.868-33.654,5.154c-1.917,0.78-3.825,1.613-5.727,2.471c1.989,6.303,4.472,12.384,7.4,18.204    C16.344,305.173,18.518,304.166,20.759,303.268z"
   id="path3416" />
		<path
   fill="#442006"
   d="M148.61,278.364c21-2.609,38.421,8.715,56.995,16.424c10.287,4.27,20.767,6.624,31.298,7.005    c2.561-5.644,4.708-11.514,6.405-17.573c-3.12,0.281-6.27,0.383-9.454,0.25c-9.549-0.398-18.947-3.843-27.721-7.391    c-17.809-7.202-34.56-15.34-54.348-13.517c-19.907,1.835-39.114,11.745-59.529,8.349c-2.163-0.36-3.872,2.037-2.204,3.787    C104.969,291.346,130.356,280.632,148.61,278.364z"
   id="path3418" />
		<path
   fill="#442006"
   d="M184.444,208.914c-5.699,1.562-11.4,1.21-17.164,0.316c-4.59-0.711-10.681-3.041-15.208-1.373    c-0.489,0.181-0.786,0.625-0.655,1.153c0.991,3.994,5.38,6.757,8.758,8.636c5.461,3.039,11.345,4.343,17.5,5.051    c11.954,1.376,22.99-3.364,33.807-7.659c8.663-3.438,17.594-6.259,26.139-1.979c1.774,0.889,3.514,1.824,5.236,2.729    c-2.34-7.945-5.457-15.557-9.266-22.748c-6.366-0.464-12.823,0.734-18.901,2.989C204.386,199.852,195.097,205.994,184.444,208.914    z"
   id="path3420" />
		<path
   fill="#442006"
   d="M206.307,229.625c-2.378-1.504-4.271,2.067-2.147,3.674c10.074,7.621,23.978,8.178,35.991,6.37    c2.4-0.361,4.765-0.864,7.094-1.485c-0.398-3.949-0.987-7.842-1.748-11.673C233.874,232.669,218.207,237.153,206.307,229.625z"
   id="path3422" />
		<path
   fill="#442006"
   d="M116.045,230.485c-0.191,0.229-0.122,0.556,0.172,0.653c3.324,1.099,7.051,0.002,10.523,0.159    c5.536,0.25,10.952,2.476,15.889,4.828c8.846,4.216,16.375,10.619,24.724,15.677c16.646,10.084,35.532,16.271,55.103,15.926    c8.35-0.146,16.8-1.539,24.777-4.224c0.426-4.183,0.644-8.428,0.641-12.724c0-0.055,0-0.11,0-0.164    c-0.001-1.588-0.042-3.166-0.103-4.739c-8.798,4.457-18.942,6.534-28.753,6.88c-19.197,0.677-38.458-6.489-55.214-15.266    c-8.421-4.411-17.449-7.767-26.857-9.229C131.427,227.405,120.177,225.544,116.045,230.485z"
   id="path3424" />
	</g>
	<path
   id="path3339"
   fill="#010101"
   fill-opacity="0.3137"
   d="M232.658,192.161c3.203,10.976,4.906,22.589,4.906,34.594   c0,68.108-55.267,123.376-123.375,123.376c-46.824,0-87.599-26.133-108.5-64.595c15.022,51.2,62.367,88.625,118.406,88.625   c68.108,0,123.375-55.267,123.375-123.375C247.47,229.576,242.097,209.599,232.658,192.161z" />
	<path
   id="path3238"
   fill="#FF860D"
   stroke="#010101"
   stroke-width="4"
   stroke-linecap="round"
   stroke-linejoin="round"
   d="   M118.507,370.713c0,21.545-17.484,20.772-39.029,20.772c-11.979,0-22.705,0.238-29.866-3.254c-5.718-2.789-9.164-7.955-9.164-17.52   c0-21.546,17.485-39.031,39.03-39.031S118.507,349.167,118.507,370.713z" />
	<path
   id="path3235"
   fill="#FF860D"
   stroke="#010101"
   stroke-width="4"
   stroke-linecap="round"
   stroke-linejoin="round"
   d="   M208.529,370.713c0,21.545-17.484,20.772-39.029,20.772s-39.03,0.771-39.03-20.772s17.485-39.031,39.03-39.031   S208.529,349.167,208.529,370.713z" />
	<g
   id="g3429">
		<path
   fill="#442006"
   d="M99.328,390.865c6.538-0.792,11.851-2.585,15.211-6.625c-2.5-1.291-4.994-2.54-7.348-3.849    c-8.228-4.573-17.473-8.392-26.785-9.926c-9.355-1.542-17.788,1.431-26.866,2.998c-1.325,0.229-7.675,0.888-12.772,1.894    c0.227,1.559,0.572,2.97,1.032,4.242c1.073-0.134,2.131-0.287,3.138-0.393c4.642-0.484,9.258-1.181,13.9-1.66    c8-0.828,17.188,0.89,24.505,4.077C88.974,384.077,94.098,387.598,99.328,390.865z"
   id="path3431" />
		<path
   fill="#442006"
   d="M149.19,368.302c1.919-1.265,2.085-3.007,3.198-4.835c0.018-0.028,0.014-0.071-0.012-0.095    c-1.345-1.171-1.589-2.819-3.187-3.818c-2.212-1.385-4.372-1.674-6.925-1.976c-3.104-0.366-6.361-0.66-9.474-0.142    c-1.501,4.146-2.322,8.614-2.322,13.275c0,0.354,0.018,0.687,0.026,1.029c0.86,0.13,1.802,0.121,2.824-0.072    c3.463-0.655,6.889-1.165,10.399-1.533C145.789,369.921,147.451,369.449,149.19,368.302z"
   id="path3433" />
		<path
   fill="#442006"
   d="M204.481,379.612c-7.56-1.721-14.764-4.738-22.19-6.908c-3.983-1.164-8.242-1.517-12.351-1.992    c-3.854-0.446-5.796-0.138-8.589,2.413c-0.307,0.28-0.036,0.692,0.304,0.733c2.454,0.293,5.299,0.725,7.68,1.325    c2.771,0.7,4.308,2.942,6.428,4.556c3.229,2.456,6.778,4.307,10.341,6.218c2.719,1.458,5.532,2.797,8.412,3.986    c5.861-1.461,10.256-4.309,12.45-9.812C206.136,379.973,205.308,379.801,204.481,379.612z"
   id="path3435" />
		<path
   fill="#442006"
   d="M76.126,340.095c-0.01,0.093,0.068,0.157,0.144,0.188c4.415,1.832,10.636,0.644,15.288-0.047    c2.813-0.418,6.058-1.133,8.468-2.701c-3.57-2.218-7.525-3.869-11.739-4.844c-0.934,0.316-1.86,0.604-2.773,0.826    C81.951,334.384,76.566,335.866,76.126,340.095z"
   id="path3437" />
		<path
   fill="#442006"
   d="M85.038,350.163c-2.94-0.473-4.787,3.203-2.077,4.926c7.085,4.504,15.525,4.671,23.384,2.355    c2.759-0.813,5.71-1.897,8.453-3.335c-1.515-3.215-3.458-6.186-5.751-8.848c-1.187,0.782-2.391,1.563-3.648,2.276    C98.834,351.259,92.282,351.326,85.038,350.163z"
   id="path3439" />
		<path
   fill="#442006"
   d="M142.488,349.725c3.598,1.776,7.023,3.873,10.612,5.668c8.31,4.157,16.495,4.235,25.21,1.284    c7.507-2.542,14.322-6.652,21.73-9.411c0.171-0.063,0.343-0.118,0.515-0.179c-2.554-3.351-5.633-6.277-9.119-8.652    c-3.435,1.493-6.803,3.174-10.173,4.696c-3.893,1.759-8.002,3.184-12.275,3.572c-4.242,0.386-8.219-1.535-11.87-3.454    c-2.822-1.483-5.998-3.382-9.331-4.966c-3.923,2.633-7.335,5.963-10.075,9.805C139.295,348.454,140.866,348.925,142.488,349.725z"
   id="path3441" />
		<path
   fill="#442006"
   d="M43.692,355.133c0.527,0.163,1.055,0.332,1.588,0.511c6.238,2.096,11.066,4.37,17.87,3.97    c1.368-0.081,8.75-0.79,8.14-3.601c-0.978-4.499-8.672-4.305-11.862-6.24c-2.651-1.608-4.874-4.233-7.37-6.103    c-0.138-0.104-0.28-0.197-0.419-0.298C48.32,346.752,45.613,350.73,43.692,355.133z"
   id="path3443" />
	</g>
	<path
   id="path3332"
   fill="#010101"
   fill-opacity="0.3137"
   d="M99.494,337.505c4.724,6.479,7.531,14.468,7.531,23.094   c0,12.466-5.835,23.559-14.906,30.75c15.082-0.573,25.906-3.694,25.906-20.625C118.025,356.691,110.619,344.384,99.494,337.505z" />
	<g
   id="g2469"
   transform="matrix(-1,0,0,1,652.476,-1.82788)">
		<path
   id="path2471"
   fill="none"
   stroke="#010101"
   stroke-width="4"
   stroke-linecap="round"
   d="M558.316,391.167    c-3.503-11.332,0.5-24.551,0.5-24.551" />
		<path
   id="path2473"
   fill="none"
   stroke="#010101"
   stroke-width="4"
   stroke-linecap="round"
   d="M576.342,393.685    c4.294-18.256-0.612-32.733-0.612-32.733" />
		<path
   id="path2475"
   fill="none"
   stroke="#010101"
   stroke-width="4"
   stroke-linecap="round"
   d="M594.596,391.796    c8.813-13.851,1.26-25.18,1.26-25.18" />
	</g>
	<path
   id="path3327"
   fill="#010101"
   fill-opacity="0.3137"
   d="M189.994,337.505c4.725,6.479,7.531,14.468,7.531,23.094   c0,12.466-5.834,23.559-14.906,30.75c15.082-0.573,25.906-3.694,25.906-20.625C208.525,356.691,201.119,344.384,189.994,337.505z" />
	<path
   id="path3349"
   fill="#010101"
   fill-opacity="0.3137"
   d="M135.681,351.223c-3.313,5.733-5.22,12.405-5.22,19.5   c0,17.505,11.554,20.263,27.438,20.688C142.121,384.833,134.095,369.203,135.681,351.223z" />
	<g
   id="g2508"
   transform="translate(-0.82294,-1.82788)">
		<path
   id="path2510"
   fill="none"
   stroke="#010101"
   stroke-width="4"
   stroke-linecap="round"
   d="M156.367,391.167    c-3.503-11.332,0.5-24.551,0.5-24.551" />
		<path
   id="path2512"
   fill="none"
   stroke="#010101"
   stroke-width="4"
   stroke-linecap="round"
   d="M174.393,393.685    c4.293-18.256-0.613-32.733-0.613-32.733" />
		<path
   id="path2514"
   fill="none"
   stroke="#010101"
   stroke-width="4"
   stroke-linecap="round"
   d="M192.647,391.796    c8.813-13.851,1.26-25.18,1.26-25.18" />
	</g>
	<g
   id="g325">
		<path
   id="path3306_2_"
   fill="#010101"
   fill-opacity="0.3137"
   d="M57.15,172.061c-12.297,16.099-19.594,36.191-19.594,58    c0,52.818,42.868,95.688,95.688,95.688c52.82,0,95.688-42.868,95.688-95.688c0-21.602-7.193-34.512-19.281-50.531    c3.724-2.548,6.889-5.694,9.594-9.188c-10.563-11.339-70.369-35.969-86-35.969C117.958,134.374,51.819,168.243,57.15,172.061z" />
		<path
   id="path2479"
   fill="#FF860D"
   stroke="#010101"
   stroke-width="4"
   stroke-linecap="round"
   stroke-linejoin="round"
   d="    M24.488,112.879c-5.862,4.975,6.742,50.256,14.387,55.052c-8.083,14.287-12.732,30.775-12.732,48.353    c0,54.329,44.066,98.438,98.396,98.438c54.329,0,98.439-44.109,98.439-98.438c0-17.577-4.651-34.065-12.733-48.353    c7.628-4.801,17.643-48.595,12.733-53.503c-4.908-4.908-45.246,8.519-50.045,16.147c-2.567-1.454-9.945-6.953-9.945-6.953    l-9,5.473l-1.485-8.667l-5.979,4.92l-5.34-6.92l-7.939,9.195l-8.755-6.087l-3.725,7.226l-9.042-8l-4.401,9.667l-7-11l-7.333,10    l-7.333-5.806c0,0-6.486,5.264-9.47,6.953C71.388,122.947,29.216,108.865,24.488,112.879z" />
		<g
   id="g3459">
			<path
   fill="#442006"
   d="M184.966,225.843c-7.536-0.232-14.987-1.361-22.506-1.739c-4.869-0.245-9.759-0.298-14.632-0.43     c-3.775-0.102-8.461-1.234-11.767,0.837c-1.089,0.682-1.109,1.946-0.371,2.883c2.467,3.135,7.391,3.211,11.094,3.996     c5.38,1.14,10.743,1.961,16.044,3.48c7.651,2.194,14.916,5.168,22.746,6.799c8.417,1.753,16.646,2.06,25.131,0.721     c2.967-0.468,6.292-1.322,9.444-2.631c1.702-6.948,2.668-14.184,2.806-21.62c-5.95,1.225-11.063,5.099-17.151,6.47     C199.064,226.127,191.831,226.054,184.966,225.843z"
   id="path3461" />
			<path
   fill="#442006"
   d="M206.059,116.245c1.288,3.513,3.011,6.703,4.096,10.326c1.039,3.471,2.162,7.581,4.829,10.164     c3.363,3.255,7.713-0.831,6.061-4.676c-1.521-3.536-3.117-6.967-4.506-10.587c-1.002-2.611-2.166-5.485-4.243-7.418     c-1.988,0.352-4.146,0.831-6.398,1.409C205.915,115.715,205.961,115.975,206.059,116.245z"
   id="path3463" />
			<path
   fill="#442006"
   d="M151.128,198.057c-3.213,0.029-6.527-0.66-9.681-0.049c-0.647,0.125-0.781,1.141-0.187,1.428     c5.202,2.509,12.629,1.485,18.262,1.42c7.323-0.086,14.621-0.648,21.911-1.325c10.444-0.97,21.738-0.843,31.737-4.486     c4.981-1.815,6.465-8.56,1.504-11.507c-10.925-6.489-19.998,7.004-29.34,9.852c-7.159,2.182-14.985,3.034-22.394,3.947     C159.011,197.821,155.085,198.021,151.128,198.057z"
   id="path3465" />
			<path
   fill="#442006"
   d="M125.855,140.927c-4.741,10.473-8.184,24.293-3.597,35.438c0.846,2.056,3.962,3.127,5.203,0.68     c4.399-8.678,8.071-17.528,13.231-25.839c2.472-3.98,5.146-7.811,8.352-11.229c3.525-3.759,8.353-7.083,10.689-11.778     c0.53-1.065,0.81-2.122,0.888-3.138l-6.633,4.033l-1.485-8.667l-5.979,4.92l-4.023-5.215     C134.977,124.902,128.866,134.275,125.855,140.927z"
   id="path3467" />
			<path
   fill="#442006"
   d="M100.321,119.428l-7.319,9.981c0.009,0.071,0.016,0.142,0.025,0.213     c1.163,8.513,5.408,18.569,14.257,21.316c4.259,1.322,9.807-3.303,7.88-7.88c-2.364-5.619-4.707-10.508-5.982-16.524     c-0.01-0.046-0.015-0.093-0.025-0.14l-1.836,4.034L100.321,119.428z"
   id="path3469" />
			<path
   fill="#442006"
   d="M186.701,285.518c-4.406-0.154-8.768-0.165-13.167-0.542c-9.198-0.788-18.113-1.348-27.122,1.186     c-5.905,1.66-10.366,5.466-14.979,9.326c-3.881,3.247-8.389,7.047-10.068,11.949c-0.973,2.84,0.425,5.657,2.667,7.278     c0.169,0.001,0.338,0.007,0.508,0.007c2.613,0,5.201-0.104,7.764-0.305c3.435-2.492,6.563-5.531,9.814-8.244     c4.605-3.842,8.62-6.016,14.812-6.584c6.218-0.571,12.462,0.274,18.696,0.837c6.585-4.01,12.66-8.772,18.113-14.165     C191.389,285.616,188.675,285.587,186.701,285.518z"
   id="path3471" />
			<path
   fill="#442006"
   d="M82.143,267.191c2.223-3.203,4.277-6.466,6.171-9.872c2.625-4.72,4.731-11.196,8.95-14.696     c2.533-2.102-0.253-5.589-2.944-5.057c-8.529,1.688-14.309,9.726-19.817,15.87c-5.652,6.305-11.371,12.544-17.596,18.295     c-2.674,2.471-5.477,4.83-8.409,7.009c3.856,4.692,8.14,9.019,12.787,12.926c0.551-0.506,1.096-1.013,1.631-1.521     C70.135,283.276,76.471,275.363,82.143,267.191z"
   id="path3473" />
			<path
   fill="#442006"
   d="M213.458,162.864c0.398-0.257,0.74-0.551,1.038-0.868c0.44-0.907,0.879-1.887,1.313-2.935     c0.104-1.338-0.344-2.737-1.357-3.905c-2.961-3.414-7.677-4.11-10.698-7.514c-1.843-2.076-2.724-6.263-3.021-8.834     c-0.537-4.638-0.256-9.333-0.703-13.984c-0.238-2.478-0.73-4.738-1.356-7.127c-0.005-0.02-0.022-0.066-0.044-0.124     c-5.011,1.61-10.048,3.538-14.353,5.527c-0.3,1.637-0.5,3.293-0.64,4.988c-0.482,5.842,0.517,12.244,2.181,17.837     C188.774,155.859,202.051,170.222,213.458,162.864z"
   id="path3475" />
			<path
   fill="#442006"
   d="M73.47,137.498c-0.854,0.484-1.583,1.58-1.49,2.597c0.373,4.061,3.761,6.03,6.8,8.319     c4.036,3.041,8.189,5.854,12.08,9.099c3.513,2.931,6.65,6.256,9.542,9.793c3.207,3.924,5.042,8.863,9.356,11.738     c3.507,2.337,7.375-0.846,7.7-4.418c0.473-5.197-3.101-9.91-6.052-13.877c-3.377-4.54-7.387-8.449-11.76-12.021     c-3.962-3.236-8.185-5.914-12.674-8.352C83.164,138.308,77.694,135.101,73.47,137.498z"
   id="path3477" />
			<path
   fill="#442006"
   d="M34.9,113.081c0.021,0.666,0.042,1.332,0.084,1.986c0.46,6.974,1.921,13.837,6.37,19.374     c2.875,3.578,9.867,9.082,14.617,6.785c0.999-0.483,1.432-1.811,1.151-2.828c-0.681-2.463-3.134-3.876-4.509-5.977     c-1.308-1.998-1.178-5.476-1.578-7.771c-0.4-2.294-0.485-4.722-0.405-7.177C45.068,115.576,39.501,114.008,34.9,113.081z"
   id="path3479" />
			<path
   fill="#442006"
   d="M26.153,138.703c1.447,5.648,3.265,11.386,5.186,16.292c4.599,0.423,9.182,2.011,13.469,3.632     c4.52,1.709,8.91,3.828,13.278,5.886c4.385,2.066,9.143,4.98,14.085,3.876c2.158-0.481,4.009-3.307,3.11-5.478     c-2.102-5.079-7.424-7.611-11.92-10.44c-4.613-2.903-9.248-5.618-14.241-7.817C42.76,141.853,34.106,138.732,26.153,138.703z"
   id="path3481" />
			<path
   fill="#442006"
   d="M210.938,254.47c-8.73,4.055-18.225,5.059-27.723,4.285c-9.745-0.794-19.242-4.396-28.815-6.244     c-5.149-0.993-20.568-3.849-22.44,3.782c-0.247,1.008,0.317,1.804,1.228,2.163c3.229,1.272,7.514,0.348,10.962,1.019     c4.857,0.944,9.652,2.479,14.337,4.047c9.898,3.312,19.531,7.32,29.887,9.049c5.531,0.923,11.086,1.134,16.548,0.518     c4.67-6.594,8.546-13.787,11.497-21.439C214.636,252.635,212.822,253.595,210.938,254.47z"
   id="path3483" />
			<path
   fill="#442006"
   d="M93.048,303.321c3.592-10.001,7.804-26.386,19.643-29.692c1.58-0.441,1.553-2.71,0-3.164     c-13.797-4.038-24.156,14.021-29.187,24.07c-1.483,2.962-2.815,6.084-4.019,9.271c3.776,1.95,7.696,3.662,11.737,5.118     C91.793,307.038,92.386,305.163,93.048,303.321z"
   id="path3485" />
			<path
   fill="#442006"
   d="M62.039,249.602c0.591-1.908-1.027-4.1-3.051-4.005c-7.735,0.361-15.221,6.345-22.234,9.265     c-0.774,0.322-1.565,0.619-2.357,0.913c1.663,3.79,3.556,7.457,5.665,10.979C47.883,263.703,59.343,258.308,62.039,249.602z"
   id="path3487" />
			<path
   fill="#442006"
   d="M40.811,197.155c6.396,1.122,14.132,3.707,20.252,0.747c2.012-0.973,1.349-3.988-0.594-4.545     c-6.265-1.795-12.025-5.242-18.211-7.359c-3.379-1.157-6.777-2.246-10.177-3.332c-1.439,3.941-2.632,8-3.563,12.158     C32.593,195.682,36.691,196.432,40.811,197.155z"
   id="path3489" />
			<path
   fill="#442006"
   d="M101.679,209.564c-15.205-8.574-33.016,0.034-48.201,4.112c-6.862,1.843-14.187,3.108-19.707,1.721     c-2.325-0.585-4.689-2.21-7.499-3.945c-0.078,1.603-0.131,3.211-0.131,4.832c0,6.121,0.564,12.111,1.635,17.926     c7.433,2.093,15.3,1.721,22.875-0.237c17.241-4.458,32.778-14.147,50.196-18.057C103.809,215.252,104.225,211,101.679,209.564z"
   id="path3491" />
		</g>
		<path
   id="path3293_2_"
   fill="#010101"
   fill-opacity="0.3137"
   d="M215.983,181.842c1.235,6.046,1.893,12.288,1.893,18.688    c0,52.819-43.998,95.688-98.212,95.688c-40.659,0-75.565-24.098-90.481-58.438c9.003,43.79,48.706,76.844,96.288,76.844    c54.214,0,98.212-42.868,98.212-95.688C223.681,205.782,220.927,193.246,215.983,181.842z" />
		<path
   id="path2483"
   fill="#D1660F"
   stroke="#010101"
   stroke-width="4"
   stroke-linecap="round"
   stroke-linejoin="round"
   d="    M183.291,136.494c8.318,5.603,15.479,12.755,21.075,21.075c4.268-2.712,14.47-30.834,11.122-33.641    C212.832,121.702,186,132.212,183.291,136.494z" />
		<path
   id="path2523"
   fill="#D1660F"
   stroke="#010101"
   stroke-width="4"
   stroke-linecap="round"
   stroke-linejoin="round"
   d="    M66.088,136.494c-8.316,5.603-15.478,12.755-21.073,21.075c-4.27-2.712-13.385-31.241-10.026-34.047    C37.642,121.305,63.379,132.212,66.088,136.494z" />
	</g>
	<path
   fill="#FFFFFF"
   d="M80.815,267.429c0,0,2.053,6.748-6.442,18.999c-3.385-11.407,0.75-33.814,0.75-33.814L80.815,267.429z"
   id="path3496" />
	<path
   fill="#FFFFFF"
   d="M167.713,267.834c0,0-2.053,6.748,6.441,18.999c3.385-11.407-0.75-33.814-0.75-33.814L167.713,267.834z"
   id="path3498" />
	<g
   id="g384">
		<g
   id="g3178"
   transform="translate(-2.52185,-5.03617)">
			<path
   id="path2400"
   fill="none"
   stroke="#010101"
   stroke-width="4.2713"
   stroke-linecap="round"
   stroke-linejoin="round"
   d="     M181.216,240.407c-9.194,17.058-6.354,39.498-25.874,44.718c-9.374,2.507-19.361,1.194-27.765-3.646" />
			<path
   id="path3176"
   fill="none"
   stroke="#010101"
   stroke-width="4.2713"
   stroke-linecap="round"
   stroke-linejoin="round"
   d="     M72.804,240.407c7.706,18.688,6.354,39.498,25.873,44.718c9.374,2.507,19.361,1.194,27.767-3.646" />
		</g>
		<path
   id="path2397"
   fill="#010101"
   d="M141.183,251.599c0,8.829-9.669,15.995-16.065,15.995c-6.892,0-16.067-7.166-16.067-15.995    c0-8.83,7.198-11.074,16.067-11.074C133.986,240.525,141.183,242.769,141.183,251.599z" />
		<g
   id="g390">
			<path
   id="path2387"
   fill="#FFFFFF"
   stroke="#010101"
   stroke-width="4"
   stroke-linecap="round"
   stroke-linejoin="round"
   d="     M120.764,205.773c0.009,12.779-10.345,23.146-23.123,23.152c-12.778,0.01-23.146-10.344-23.153-23.121c0-0.012,0-0.021,0-0.031     c-0.009-12.779,10.344-23.146,23.123-23.154c12.778-0.008,23.145,10.344,23.153,23.123     C120.764,205.752,120.764,205.763,120.764,205.773z" />
			<path
   id="path2393"
   fill="#010101"
   d="M111.722,205.679c0.002,8.969-3.211,16.243-7.178,16.249     c-3.966,0.005-7.183-7.259-7.186-16.227c0-0.007,0-0.013,0-0.022c-0.003-8.97,3.21-16.247,7.176-16.251     c3.967-0.007,7.185,7.259,7.188,16.227C111.722,205.662,111.722,205.673,111.722,205.679z" />
		</g>
		<g
   id="g394">
			<path
   id="path2391"
   fill="#FFFFFF"
   stroke="#010101"
   stroke-width="4"
   stroke-linecap="round"
   stroke-linejoin="round"
   d="     M174.488,205.773c0.009,12.779-10.343,23.146-23.123,23.152c-12.778,0.01-23.146-10.344-23.153-23.121c0-0.012,0-0.021,0-0.031     c-0.009-12.779,10.345-23.146,23.123-23.154s23.146,10.344,23.153,23.123C174.488,205.752,174.488,205.763,174.488,205.773z" />
			<path
   id="path2395"
   fill="#010101"
   d="M151.084,205.679c0.001,8.969-3.211,16.243-7.177,16.249     c-3.967,0.005-7.183-7.259-7.187-16.227c0-0.007,0-0.013,0-0.022c-0.001-8.97,3.211-16.247,7.177-16.251     c3.967-0.007,7.183,7.259,7.187,16.227C151.084,205.662,151.084,205.673,151.084,205.679z" />
		</g>
	</g>
	<g
   id="g398">
		<g
   id="g3188"
   transform="translate(0,-10.7019)">
			<path
   id="path3182"
   fill="none"
   stroke="#000000"
   stroke-width="4"
   stroke-linecap="round"
   d="M167.125,255.604     c44.674-16.607,66.505,3.894,66.505,3.894" />
			<path
   id="path3184"
   fill="none"
   stroke="#000000"
   stroke-width="4"
   stroke-linecap="round"
   d="M160.716,266.74     c31.635-8.957,52.353,13.888,52.353,13.888" />
			<path
   id="path3186"
   fill="none"
   stroke="#000000"
   stroke-width="4"
   stroke-linecap="round"
   d="M158.087,278.653     c24.337-2.576,33.656,19.125,33.656,19.125" />
		</g>
		<g
   id="g3193"
   transform="matrix(-1,0,0,1,651.555,-10.7019)">
			<path
   id="path3195"
   fill="none"
   stroke="#000000"
   stroke-width="4"
   stroke-linecap="round"
   d="M563.569,255.604     c44.674-16.607,66.505,3.894,66.505,3.894" />
			<path
   id="path3197_4_"
   fill="none"
   stroke="#000000"
   stroke-width="4"
   stroke-linecap="round"
   d="M557.162,266.74     c31.635-8.957,52.353,13.888,52.353,13.888" />
			<path
   id="path3199"
   fill="none"
   stroke="#000000"
   stroke-width="4"
   stroke-linecap="round"
   d="M554.531,278.653     c24.338-2.576,33.657,19.125,33.657,19.125" />
		</g>
	</g>
</g>
<g
   id="Layer_2">
</g>
<g
   id="Layer_3">
</g>
</svg>